<?xml version="1.0" encoding="utf-8"?>
<!-- Generator: Adobe Illustrator 27.5.0, SVG Export Plug-In . SVG Version: 6.00 Build 0)  -->
<svg version="1.1" id="Layer_1" xmlns="http://www.w3.org/2000/svg" xmlns:xlink="http://www.w3.org/1999/xlink" x="0px" y="0px"
	 viewBox="0 0 677.117 553.194" style="enable-background:new 0 0 677.117 553.194;" xml:space="preserve">
<path style="fill:#FFFDEF;" d="M463.811,288.832c0,25.187-6.484,48.845-17.877,69.422c-6.158,11.166-13.781,21.421-22.587,30.505
	c-2.376,2.46-4.836,4.834-7.401,7.106c-25.41,22.76-58.979,36.611-95.797,36.611c-52.321,0-98.121-27.976-123.224-69.784
	c-5.901-9.825-10.65-20.388-14.092-31.555c-4.112-13.367-6.332-27.58-6.332-42.306c0-1.635,0.035-3.27,0.104-4.905
	c0.034-1.669,0.119-3.337,0.242-4.987c0.291-4.425,0.79-8.777,1.479-13.078c10.995-68.424,70.299-120.693,141.822-120.693
	c15.382,0,30.213,2.41,44.098,6.898c16.55,5.335,31.794,13.576,45.111,24.157c7.863,6.229,15.054,13.266,21.455,21.008
	c4.043,4.87,7.76,10.013,11.134,15.399C455.811,234.705,463.811,260.839,463.811,288.832z"/>
<g>
	<path style="fill:#C1D58A;" d="M515.637,433.235c0,9.391-7.611,17.006-17.004,17.006H231.181c-9.393,0-17.006-7.615-17.006-17.006
		l0,0c0-9.391,7.613-17.006,17.006-17.006h267.452C508.026,416.229,515.637,423.844,515.637,433.235L515.637,433.235z"/>
	<path style="fill:#B0C779;" d="M258.803,431.075c0,2.44-1.98,4.419-4.419,4.419h-19.893c-2.441,0-4.421-1.98-4.421-4.419l0,0
		c0-2.441,1.98-4.421,4.421-4.421h19.893C256.824,426.654,258.803,428.634,258.803,431.075L258.803,431.075z"/>
	<path style="fill:#B0C779;" d="M486.435,422.235c0,2.44-1.976,4.419-4.419,4.419h-19.891c-2.441,0-4.419-1.979-4.419-4.419l0,0
		c0-2.441,1.978-4.419,4.419-4.419h19.891C484.459,417.816,486.435,419.794,486.435,422.235L486.435,422.235z"/>
	<path style="fill:#B0C779;" d="M505.59,430.336c0,4.069-3.298,7.367-7.367,7.367h-239.42c-4.071,0-7.367-3.298-7.367-7.367l0,0
		c0-4.067,3.296-7.365,7.367-7.365h239.42C502.292,422.971,505.59,426.269,505.59,430.336L505.59,430.336z"/>
	<g>
		<rect x="281.733" y="306.375" style="fill:#D2E8DC;" width="158.504" height="112.157"/>
		<rect x="281.733" y="388.402" style="fill:#C4E3DB;" width="158.504" height="30.129"/>
		<rect x="281.733" y="306.375" style="fill:#B5D1CA;" width="158.504" height="7.819"/>
		<rect x="381.271" y="334.034" style="fill:#A5B8BE;" width="46.781" height="84.497"/>
		<rect x="389.696" y="341.913" style="fill:#FAAF47;" width="29.932" height="19.444"/>
		<path style="fill:#EEF4DE;" d="M388.087,340.563v21.889h33.146v-21.889H388.087z M418.529,359.748h-12.514v-16.481h12.514V359.748
			z M390.791,343.267h12.518v16.481h-12.518V343.267z"/>
		<g>
			<g>
				<rect x="418.575" y="368.245" style="fill:#9DAFB5;" width="2.589" height="40.315"/>
				<rect x="412.489" y="368.245" style="fill:#9DAFB5;" width="2.589" height="40.315"/>
				<rect x="406.408" y="368.245" style="fill:#9DAFB5;" width="2.592" height="40.315"/>
				<rect x="400.327" y="368.245" style="fill:#9DAFB5;" width="2.587" height="40.315"/>
				<rect x="394.243" y="368.245" style="fill:#9DAFB5;" width="2.589" height="40.315"/>
				<rect x="388.161" y="368.245" style="fill:#9DAFB5;" width="2.589" height="40.315"/>
			</g>
		</g>
		<g>
			<polygon style="fill:#F3986D;" points="358.203,225.412 388.214,225.412 396.571,249.953 358.203,249.953 			"/>
			<polygon style="fill:#F3986D;" points="356.332,225.412 326.324,225.412 317.966,249.953 356.332,249.953 			"/>
		</g>
		<polygon style="fill:#F3986D;" points="292.759,249.027 362.177,249.027 380.858,249.027 427.521,249.027 445.725,302.467 
			380.858,302.467 362.177,302.467 274.556,302.467 		"/>
		<polygon style="fill:#D2E8DC;" points="318.171,253.658 318.171,297.184 397.508,297.184 397.508,253.658 357.84,225.412 		"/>
		<polygon style="fill:#B5D1CA;" points="318.171,253.658 318.171,258.223 357.84,229.975 397.508,258.223 397.508,253.658 
			357.84,225.412 		"/>
		<rect x="340.125" y="257.532" style="fill:#FAAF47;" width="38.03" height="24.701"/>
		<path style="fill:#EEF4DE;" d="M338.086,255.815v27.811h42.113v-27.811H338.086z M376.761,280.191h-15.9v-20.941h15.9V280.191z
			 M341.518,259.251h15.906v20.941h-15.906V259.251z"/>
		<rect x="313.706" y="335.753" style="fill:#FAAF47;" width="38.025" height="45.28"/>
		<path style="fill:#EEF4DE;" d="M311.661,334.034v48.392h42.113v-48.392H311.661z M350.339,378.989h-15.901v-41.517h15.901V378.989
			z M315.099,337.472H331v41.517h-15.901V337.472z"/>
		<polygon style="fill:#EEF4DE;" points="308.214,261.415 357.84,226.073 407.465,261.415 412.249,254.698 357.84,215.952 
			303.43,254.698 		"/>
		<rect x="270.691" y="302.467" style="fill:#EEF4DE;" width="177.273" height="7.819"/>
		<rect x="272.625" y="418.531" style="fill:#B5D1CA;" width="175.029" height="10.475"/>
	</g>
	<path style="fill:#D6D6D6;" d="M440.241,418.535h7.415v10.477h-16.088l-3.819-78.953c-17.36-32.193-23.535-53.576-25.738-64.728
		l-7.054-1.203c-0.328-5.49,0-14.85,0.585-25.136l-7.071-0.793c-1.616-4.179-0.378-17.427,1.117-28.749l4.112,12.026l10.6,7.553
		h23.226l18.203,53.439h2.236v7.812h-7.724V418.535z"/>
	<g>
		<path style="fill:#585147;" d="M439.555,415.479l1.438,9.581c0,0,5.125,1.553,7.525-0.806l-1.378-9.103L439.555,415.479z"/>
		<path style="fill:#585147;" d="M460.245,405.533l-1.512,9.57c0,0,4.421,3.019,7.421,1.494l1.425-9.093L460.245,405.533z"/>
		<g>
			<path style="fill:#FDD08B;" d="M475.008,192.454l-3.806,7.855c-0.376,0.773-0.054,1.704,0.719,2.078l8.06,3.907
				c0.773,0.376,1.702,0.052,2.077-0.722l3.663-7.553c0,0,0.175-3.78-3.745-5.678C477.625,190.229,475.008,192.454,475.008,192.454z
				"/>
			<path style="fill:#FDD08B;" d="M471.349,202.11l-2.114-3.387l-4.036-5.356c0,0,1.548-2.041,5.721,1.89l2.51,2.305L471.349,202.11
				z"/>
			<path style="fill:#FDD08B;" d="M479.651,182.234c0.762,0.242,1.183,1.048,0.948,1.81l-4.026,12.829
				c-0.238,0.762-1.046,1.184-1.808,0.946l0,0c-0.762-0.24-1.183-1.048-0.946-1.81l4.024-12.829
				C478.081,182.421,478.891,181.996,479.651,182.234L479.651,182.234z"/>
			<path style="fill:#FDD08B;" d="M488.532,186.674c0.618,0.497,0.715,1.404,0.216,2.024l-8.423,10.479
				c-0.499,0.624-1.408,0.723-2.028,0.224l0,0c-0.622-0.499-0.717-1.408-0.223-2.03l8.428-10.477
				C486.999,186.27,487.91,186.171,488.532,186.674L488.532,186.674z"/>
			<path style="fill:#FDD08B;" d="M488.683,192.048c0.562,0.451,0.652,1.274,0.199,1.838l-7.648,9.512
				c-0.451,0.564-1.277,0.654-1.842,0.201l0,0c-0.564-0.456-0.652-1.279-0.199-1.842l7.648-9.512
				C487.292,191.683,488.118,191.594,488.683,192.048L488.683,192.048z"/>
			<path style="fill:#FDD08B;" d="M485.303,182.227c0.702,0.376,0.965,1.251,0.588,1.952l-6.369,11.846
				c-0.376,0.702-1.253,0.966-1.955,0.59l0,0c-0.702-0.378-0.965-1.255-0.585-1.955l6.365-11.846
				C483.724,182.111,484.597,181.849,485.303,182.227L485.303,182.227z"/>
			<path style="fill:#FDD08B;" d="M482.057,205.572c0,0-1.892,3.646-6.302,1.385c0,0-6.687-3.24-3.618-7.758l9.943,0.652
				L482.057,205.572z"/>
		</g>
		<polygon style="fill:#F1EFE2;" points="471.865,204.76 470.703,209.311 479.133,211.421 480.444,207.222 		"/>
		<polygon style="fill:#585147;" points="442.064,240.628 471.98,238.165 480.42,209.941 470.424,207.399 464.491,226.496 
			443.44,226.2 436.278,230.336 		"/>
		<path style="fill:#585147;" d="M444.404,236.325c0,0,1.712,26.38,8.397,48.552l-19.386-0.315
			C433.415,284.562,423.62,215.857,444.404,236.325z"/>
		<path style="fill:#BBDAD8;" d="M444.896,281.841c-0.309-0.009-0.581-0.238-0.629-0.555c-0.054-0.361,0.192-0.696,0.551-0.749
			c0.847-0.136,1.903-0.432,2.091-1.108c0.345-1.235-1.842-3.559-2.953-4.49c-0.281-0.235-0.313-0.65-0.082-0.927
			c0.233-0.281,0.648-0.317,0.924-0.082c0.419,0.35,4.041,3.471,3.376,5.851c-0.3,1.084-1.365,1.773-3.155,2.054
			C444.978,281.841,444.935,281.845,444.896,281.841z"/>
		<path style="fill:#5F574D;" d="M422.596,281.704c0,0,9.095,16.723,33.552,55.17l-0.419,71.599c0,0,9.209,4.445,14.177-1.68
			l4.484-74.221l-31.181-52.124L422.596,281.704z"/>
		<path style="fill:#675E53;" d="M450.367,417.291c-1.309,1.415-2.805,2.13-4.328,2.399c-4.624,0.875-9.358-2.395-9.358-2.395
			l-3.73-77.057c-21.619-40.109-21.688-59.413-21.688-59.413l22.161,3.732l0.697,2.207l15.971,51.858L450.367,417.291z"/>
		<path style="fill:#685130;" d="M418.577,284.044c0,0,14.136,3.979,26.185-0.799l-3.518-10.294l-23.918,4.369L418.577,284.044z"/>
		<path style="fill:#F1EFE2;" d="M417.775,220.483c0,0-2.155,40.282,3.251,61.53c0,0,15.71,2.302,23.781-2.682
			c0,0-7.127-41.777-5.41-56.049l-9.16,0.678L417.775,220.483z"/>
		<polygon style="fill:#DAD9CD;" points="438.885,223.576 433.49,228.891 430.296,224.751 427.145,229.211 417.867,220.585 
			428.538,221.594 		"/>
		<path style="fill:#CC8F3F;" d="M412.966,197.898c0,0,3.049,13.326,9.023,14.706l2.836,0.264l-5.646-20.444L412.966,197.898z"/>
		<polygon style="fill:#FDD08B;" points="423.51,205.05 422.661,218.503 430.237,223.96 434.248,221.494 433.749,208.369 		"/>
		<path style="fill:#FDD08B;" d="M415.817,187.303c0,0-3.78,16.935,7.937,27.535c2.464,2.238,9.425,1.948,14.067,1.931
			c0,0,16.535-4.449,12.108-42.982c0,0-20.118,7.998-23.027-1.199C426.903,172.588,422.821,185.927,415.817,187.303z"/>
		<path style="fill:#ECBA81;" d="M435.635,192.383l0.806,8.127c0,0-0.406,0.376-4.101,0.056c0,0,0.061,1.074,2.3,1.248
			c0,0,3.103,0.59,2.976-1.561L435.635,192.383z"/>
		<path style="fill:#715120;" d="M427.378,193.659c-0.018,0.654-0.57,1.166-1.222,1.145l0,0c-0.655-0.023-1.168-0.57-1.145-1.225
			l0.065-2.004c0.024-0.656,0.57-1.169,1.227-1.145l0,0c0.655,0.02,1.166,0.568,1.145,1.223L427.378,193.659z"/>
		<path style="fill:#715120;" d="M444.369,195.073c-0.021,0.659-0.568,1.169-1.225,1.149l0,0c-0.655-0.024-1.166-0.572-1.145-1.227
			l0.067-2.004c0.019-0.654,0.566-1.168,1.225-1.145l0,0c0.655,0.02,1.171,0.572,1.145,1.224L444.369,195.073z"/>
		<path style="fill:#FFDAA9;" d="M435.635,192.383l0.806,8.127c0,0-2.095,0.417-4.101,0.056l3.209-1.095L435.635,192.383z"/>
		<g>
			<path style="fill:#FFFFFF;" d="M428.576,205.255c0,0,0.082,0.298,0.272,0.721c0.341,0.831,1.056,2.158,2.123,2.613
				c0,0,4.373,1.447,6.036-1.719c0.115-0.248,0.225-0.518,0.326-0.821C437.332,206.049,429.94,205.672,428.576,205.255z"/>
			<path style="fill:#DE7B60;" d="M428.847,205.976c0.261,0.631,0.741,1.566,1.425,2.162c0.216,0.192,0.449,0.343,0.698,0.451
				c0,0,3.009,0.996,4.983-0.473c0.406-0.304,0.773-0.708,1.052-1.246C435.307,206.913,431.838,206.889,428.847,205.976z"/>
			<path style="fill:#F2916C;" d="M430.272,208.138c0.216,0.192,0.449,0.343,0.698,0.451c0,0,3.009,0.996,4.983-0.473
				C435.052,207.594,433.037,207.067,430.272,208.138z"/>
		</g>
		<path style="fill:#CC8F3F;" d="M458.516,163.24c0,0-16.538,27.044-31.027,14.274c0,0-4.479,9.285-9.447,11
			c0,0,0.157,6.421,0.831,8.714l-2.728,0.613l-1.225-6.413l-2.806,2.091c0,0-6.274-23.177,8.573-26.812
			C420.687,166.705,445.289,166.566,458.516,163.24z"/>
		<path style="fill:#FDD08B;" d="M414.927,191.296c0,0-5.713-1.363-5.279,2.663c0,0-1.229,7.788,7.38,7.322
			C417.028,201.281,415.702,193.024,414.927,191.296z"/>
		<path style="fill:#ECBA81;" d="M412.704,193.326c0,0,1.976-0.026,2.235,3.374c0,0-0.875,0.724-0.05,1.505l0.242,1.142
			c0,0-2.512-0.937-0.927-3.239C414.203,196.108,414.443,194.611,412.704,193.326z"/>
		<path style="fill:#CC8F3F;" d="M429.333,188.383c0,0-3.557-1.758-7.628-0.198c0,0,1.933-3.985,8.013-1.415L429.333,188.383z"/>
		<path style="fill:#CC8F3F;" d="M441.794,188.115c0,0,3.67-1.507,7.628,0.332c0,0-1.652-4.105-7.896-1.967L441.794,188.115z"/>
		<polygon style="fill:#F1EFE2;" points="434.103,218.751 434.129,220.604 430.237,223.96 433.553,227.174 439.397,223.282 		"/>
		<polygon style="fill:#F1EFE2;" points="422.834,215.863 422.661,218.503 430.237,223.96 427.248,227.69 416.935,220.488 		"/>
		<path style="fill:#CC8F3F;" d="M445.025,176.357c0,0,4.613,0.432,5.661,11.136c0,0,3.931-7.549,0.523-14.976
			C451.209,172.517,446.637,173.955,445.025,176.357z"/>
		<polygon style="fill:#BC4044;" points="433.555,227.161 432.237,230.22 431.577,231.725 428.52,231.827 427.244,227.676 
			427.935,226.805 430.242,223.965 		"/>
		<polygon style="fill:#AE3C3F;" points="432.237,230.22 431.577,231.725 428.52,231.827 427.244,227.676 427.935,226.805 
			429.386,230.436 		"/>
		<path style="fill:#BC4044;" d="M428.52,231.827c0,0-3.102,24.691-0.452,36.17l4.544,3.817l2.831-5.389
			c0,0-4.244-23.539-3.864-34.701L428.52,231.827z"/>
		<path style="fill:#585147;" d="M414.858,222.906l-4.563,3.397c0,0-4.549,46.656-3.711,60.908l14.389,2.477
			C420.974,289.687,420.357,237.321,414.858,222.906z"/>
		<path style="fill:#675E53;" d="M431.684,298.616c0,0,8.209-1.197,10.158-14.496l-13.455,2.499L431.684,298.616z"/>
		<polygon style="fill:#474138;" points="407.478,267.206 420.469,268.446 420.009,270.405 406.992,269.755 		"/>
		<path style="fill:#FDD08B;" d="M427.436,260.774c0,0,11.706-0.514,14.66,2.972l3.002,10.868c0,0-8.928,0.304-11.024-1.306
			l-2.011-4.071l-5.421-3.263L427.436,260.774z"/>
		<polygon style="fill:#F1EFE2;" points="425.797,259.454 428.821,259.938 429.101,268.314 426.097,267.26 		"/>
		<path style="fill:#585147;" d="M411.772,224.226l-7.318,4.561c0,0-5.497,31.353-3.082,37.58l26.747,2.952l-0.946-10.562
			l-16.54-2.464C410.633,256.292,413.983,235.319,411.772,224.226z"/>
		<path style="fill:#474138;" d="M408.383,229.909c0,0,3.3,1.693,2.724,12.535l-1.661,13.572l10.021,1.534l-7.011-2.812
			C412.456,254.738,414.091,230.503,408.383,229.909z"/>
		<g>
			<path style="fill:#E4A24E;" d="M447.129,279.34l-3.775-0.132c-0.685-0.022-1.261,0.514-1.287,1.203l-0.123,3.546
				c-0.024,0.685,0.516,1.264,1.197,1.289l0.762,0.026l-0.259,7.462l1.106,0.691l0.966-0.894l-0.393-0.6l0.551-0.678l0.004-0.037
				l-0.505-0.715l0.547-0.681l0.004-0.034l-0.503-0.717l0.551-0.68l0.002-0.037l-0.505-0.715l0.549-0.674l0.533,0.019l0.035-1.074
				l-0.449-0.013l0.017-0.544l0.762,0.026c0.689,0.023,1.264-0.51,1.292-1.199l0.119-3.548
				C448.354,279.942,447.816,279.368,447.129,279.34z M445.209,280.305c0.451,0.015,0.805,0.397,0.788,0.847
				c-0.015,0.452-0.395,0.808-0.847,0.793c-0.453-0.019-0.807-0.399-0.792-0.849C444.375,280.644,444.756,280.288,445.209,280.305z"
				/>
		</g>
		<path style="fill:#BBDAD8;" d="M444.995,281.501c-0.076-0.002-0.154-0.017-0.231-0.05c-1.946-0.806-3.128-1.937-3.51-3.36
			c-0.549-2.047,0.81-3.866,0.871-3.942c0.224-0.289,0.628-0.343,0.918-0.125c0.288,0.22,0.346,0.629,0.13,0.92
			c-0.011,0.015-1.034,1.397-0.646,2.814c0.274,1.004,1.195,1.836,2.743,2.48c0.333,0.138,0.492,0.523,0.354,0.858
			C445.514,281.357,445.259,281.51,444.995,281.501z"/>
		<path style="fill:#FDD08B;" d="M439.741,269.508l3.08,8.717c0,0,4.244,1.687,2.276-3.611l-2.803-7.786L439.741,269.508z"/>
		<path style="fill:#675E53;" d="M439.397,223.282c0,0-0.44,16.539,1.672,31.528c0,0,3.075-17.302,3.291-23.438l-2.823-0.851
			l4.533-4.229C446.069,226.291,441.822,223.658,439.397,223.282z"/>
		<polygon style="fill:#675E53;" points="417.866,220.522 419.307,251.93 412.229,232.446 416.076,229.036 410.126,224.742 		"/>
		<path style="fill:#403B33;" d="M441.11,423.313c0,0-2.628,6.414-0.356,11.842c0,0,5.48,3.441,12.337-0.492
			c0,0,0.966-7.846-5.303-12.661C447.788,422.002,444.468,419.142,441.11,423.313z"/>
		<path style="fill:#403B33;" d="M459.531,412.647c0,0-1.931,2.434-2.026,7.618l-0.134,2.017c0,0,14.358,5.469,23.947,1.894
			c0,0,0.214-3.609-7.244-5.335l-7.22-5.801C466.854,413.039,465.027,413.399,459.531,412.647z"/>
		<path style="fill:#6B6257;" d="M450.367,417.291c-1.309,1.415-2.805,2.13-4.328,2.399l0.289-80.4c0,0-22.455-32.28-25.477-39.496
			l4.982-2.302c0,0-5.346-5.211-2.873-9.421l11.162-1.307l5.658-0.648c0,0-0.529,7.875-2.825,9.486l13.138,43.019L450.367,417.291z"
			/>
		<path style="fill:#675E53;" d="M449.934,292.073l24.457,40.5l-4.481,67.627c0,0-6.682-50.982-2.734-63.902
			C467.176,336.297,449.544,310.941,449.934,292.073z"/>
		<path style="fill:#DB9E56;" d="M419.804,169.724c0,0-10.175,3.199-7.615,15.362C412.19,185.085,410.257,173.638,419.804,169.724z"
			/>
		<path style="fill:#DB9E56;" d="M424.292,168.337c0,0,23.468,0.058,31.639-3.447C455.932,164.89,438.254,171.64,424.292,168.337z"
			/>
		<path style="fill:#DB9E56;" d="M420.307,172.29c0,0-9.371,6.292-5.924,12.773C414.383,185.063,413.862,177.769,420.307,172.29z"/>
		<path style="fill:#DB9E56;" d="M422.447,175.642c0,0-6.311,3.46-5.598,10.432C416.849,186.074,417.784,179.72,422.447,175.642z"/>
		<path style="fill:#DB9E56;" d="M427.27,171.746c0,0,11.978,2.661,21.44-2.443C448.71,169.303,443.33,176.542,427.27,171.746z"/>
		<path style="fill:#DB9E56;" d="M432.278,175.121c0,0,8.752,2.953,16.723-2.59C449,172.53,441.566,180.137,432.278,175.121z"/>
	</g>
	<polygon style="fill:#EEF4DE;" points="247.025,272.232 247.025,429.2 236.963,429.2 236.963,272.232 241.995,269.327 	"/>
	<rect x="236.963" y="277.728" style="fill:#D7DDCA;" width="10.062" height="14.665"/>
	<polygon style="fill:#EEF4DE;" points="318.277,284.296 315.37,289.316 231.162,289.316 231.162,279.266 315.37,279.266 	"/>
	<polygon style="fill:#C15429;" points="253.872,293.058 252.546,329.338 309.622,329.779 309.622,293.501 	"/>
	<g>
		<g>
			<path style="fill:#FCFCFC;" d="M269.805,301.995c-1.386,0.035-2.067,0.745-2.05,2.129l4.607-0.149l-0.65,3.397
				c-1.534-0.011-2.661,0.024-3.373,0.11c0.026,0.994,0.468,2.071,1.322,3.222l-3.514,1.389c-1.32-2.991-1.955-5.825-1.909-8.503
				c0-1.538,0.547-2.795,1.644-3.765c1.095-0.968,2.542-1.423,4.337-1.363c1.441,0.052,2.492,0.145,3.153,0.279l-0.672,3.495
				C271.952,302.045,270.984,301.965,269.805,301.995z"/>
			<path style="fill:#FCFCFC;" d="M283.332,300.646c1.106,1.032,1.657,2.272,1.657,3.724c0,1.449-0.551,2.689-1.657,3.717
				c-1.103,1.028-2.436,1.544-3.998,1.544c-1.559,0-2.89-0.516-3.995-1.544c-1.102-1.028-1.655-2.268-1.655-3.717
				c0-1.452,0.553-2.693,1.655-3.724c1.104-1.026,2.436-1.542,3.995-1.542C280.897,299.104,282.23,299.62,283.332,300.646z
				 M279.334,302.717c-0.598,0-1.112,0.166-1.538,0.495c-0.428,0.329-0.642,0.73-0.642,1.195c0,0.469,0.214,0.87,0.642,1.199
				c0.427,0.331,0.941,0.495,1.538,0.495c0.601,0,1.117-0.164,1.542-0.495c0.426-0.329,0.639-0.73,0.639-1.199
				c0-0.465-0.212-0.866-0.639-1.195C280.452,302.883,279.936,302.717,279.334,302.717z"/>
			<path style="fill:#FCFCFC;" d="M285.701,301.65c0.134-1.51,0.775-2.59,1.924-3.242c1.145-0.652,2.829-0.976,5.047-0.976
				c2.419,0.277,3.71,1.356,3.864,3.229c0.158,1.879-0.618,3.434-2.328,4.667c0.95,0.311,2.088,0.965,3.417,1.957l-2.188,2.682
				c-2.188-1.343-4.134-2.24-5.843-2.687c0,0.49,0.063,1.181,0.188,2.071l-3.469,0.859
				C285.649,306.49,285.444,303.637,285.701,301.65z M289.288,303.075c2.356-0.287,3.529-0.823,3.52-1.609
				c-0.008-0.79-1.177-0.734-3.508,0.164C289.234,302.155,289.23,302.639,289.288,303.075z"/>
			<path style="fill:#FCFCFC;" d="M266.198,322.66c-2.737-0.912-4.378-1.613-4.924-2.104c-0.544-0.49-0.816-1.121-0.816-1.894
				c0-1.905,2.579-3.486,7.739-4.747l0.715,3.322c-1.944,0.285-3.397,0.659-4.354,1.119c4.03,1.061,6.047,2.425,6.047,4.087
				c0,1.661-0.805,2.763-2.415,3.303c-1.611,0.542-3.626,0.881-6.049,1.019l-1.216-3.112
				C262.935,323.472,264.693,323.14,266.198,322.66z"/>
			<path style="fill:#FCFCFC;" d="M279.342,323.784c-1.432-0.071-3.006,0-4.721,0.209c-0.207,0.451-0.402,0.994-0.587,1.633
				l-3.104-0.911c1.797-7.183,3.747-10.833,5.851-10.952c2.101-0.121,3.633,0.985,4.596,3.313c0.965,2.328,1.654,4.974,2.071,7.939
				l-3.548,1.257C279.734,325.224,279.55,324.397,279.342,323.784z M275.923,320.503c0.864-0.086,1.737-0.145,2.624-0.177
				c-0.087-0.953-0.507-1.782-1.255-2.484C276.617,318.606,276.163,319.492,275.923,320.503z"/>
			<path style="fill:#FCFCFC;" d="M287.446,325.71c-2.449-0.076-3.637-1.175-3.564-3.292c0.069-2.117,0.549-4.251,1.441-6.399
				l3.188,0.507v0.086c-0.848,3.645-1.075,5.523-0.689,5.639c1.423-0.276,2.432-0.468,3.026-0.581l0.378,3.41
				C290.489,325.326,289.227,325.537,287.446,325.71z"/>
			<path style="fill:#FCFCFC;" d="M295.705,322.354c0,0.68,0.855,1.021,2.564,1.021c0.944-0.13,1.566-0.352,1.862-0.665l0.611,3.899
				c-0.365,0.099-0.778,0.149-1.242,0.149h-1.231c-0.926,0-1.847-0.136-2.769-0.41c-2.182-0.689-3.389-2.073-3.615-4.151
				c-0.222-2.077,0.022-3.87,0.739-5.386c0.594-1.365,1.858-2.127,3.792-2.283c1.935-0.156,3.574,0.227,4.918,1.151l-0.402,3.281
				c-1.555-0.847-2.777-1.246-3.661-1.198c-0.89,0.048-1.371,0.449-1.443,1.203c0.756-0.112,1.615-0.011,2.577,0.307l-0.378,3.123
				C297.346,322.254,296.573,322.239,295.705,322.354z"/>
		</g>
	</g>
</g>
</svg>
