<svg viewBox="0 0 1000 1000" xmlns="http://www.w3.org/2000/svg"><circle cx="462.27" cy="464.88" fill="#4747e2" r="437.27"/><circle cx="501.31" cy="503.92" fill="#fff" r="437.27"/><circle cx="537.73" cy="535.12" fill="#ddede8" r="437.27"/><path d="m162.37 780.2c80.19 98.25 202.23 161 338.94 161 136.93 0 259.16-63 339.34-161.49-1.54-25.25-5.4-50.49-10.18-75.05-20.31-104.51-114.33-106-189.11-101.82q-141.75 7.89-283.58 6.77c-60.72-.48-148.33-.54-177.18 78.36-10.51 28.71-16.05 60.52-18.23 92.23z" fill="#fff"/><path d="m187 797.19c80.19 98.25 202.23 161 338.94 161 136.93 0 259.16-62.95 339.34-161.48-1.53-25.26-5.4-50.5-10.18-75.06-20.3-104.51-114.33-106-189.11-101.81q-141.75 7.88-283.58 6.76c-60.73-.5-148.34-.6-177.19 78.4-10.51 28.67-16.05 60.47-18.22 92.19z" fill="#4747e2"/><g fill="#34c6a0"><path d="m248.21 691.44c2.86-10.67 5.67-21.34 8.71-32s6.72-21.06 9.69-31.69c1.22-4.39-5.66-7.62-7.59-3.2-9 20.6-14.41 43.72-17.24 66-.47 3.72 5.5 4.35 6.43.87z"/><path d="m326.48 617.74c-11.46 32.1-17.24 66.64-20.12 100.51-1.47 17.32-1.88 34.65-1.68 52a173.4 173.4 0 0 1 -1.38 26.75c-1.18 8.3-2.94 16.5-4.22 24.79-2.85 18.54-4 38.66.29 57.06 1.13 4.79 9 3.85 8.7-1.18-1.08-16.93-2.44-33.34-.22-50.28 2.15-16.48 6.07-32.5 6.2-49.21.13-17.14-.48-34.21.44-51.35s2.89-34.28 5.41-51.33c2.82-19 7.16-37.7 11.3-56.49a2.45 2.45 0 0 0 -4.72-1.3z"/><path d="m415.6 689.83c-5.27 35.63-5.9 72.17-6.44 108.12q-.82 54.38-1.33 108.74c-.05 5.14-.42 10.41-.13 15.54.17 3 1 6.35 3.9 7.87 6.09 3.21 11.82-4.27 7.57-9.36-3.21-3.85-8.88 1.06-6.69 5.16l.37.7-.44-3.35c3.8.37 5.4-.85 4.81-3.64v-4l.08-8q.06-7 .11-13.92l.21-29.82q.21-28.63.41-57.28c.16-18.81.31-37.63.89-56.43.63-19.88 1.9-39.77 2.11-59.66 0-3-5-3.91-5.46-.74z"/><path d="m509.33 723.23c.52 34.71 2.22 69.39 2.63 104.1s.38 69.49-.6 104.21c-.14 4.88.48 15.21 8.42 12.7 5.33-1.69 4.61-9.58-.39-11.11a4.48 4.48 0 0 0 -4.4 1.17l-.34.38c-3.9 4.36 1.93 10 6.33 6.34l.4-.33-5.47.7c-1.53-1.14-2-2.46-1.38-4l2.78-2.13-.59.1 3.58.47c.32 1 .4.85.24-.34l.12-4c.06-2 .11-4 .17-5.95q.18-6.95.32-13.89.26-12.9.36-25.81c.14-18.2 0-36.39-.49-54.59-1-36-2.45-72.28-6.9-108.07-.37-3-4.84-3.17-4.79 0z"/><path d="m599.72 682.18c7.18 31.17 14 62.24 18.63 93.93a742.29 742.29 0 0 1 7.48 97.09q.15 13.41-.19 26.8-.17 6.71-.46 13.4c-.2 4.52-.86 9.09.23 13.53 1 4.24 6.7 3.64 8 0 2.57-7.16 1.49-16.51 1.62-24.06q.19-12 0-23.92-.35-24.42-2.27-48.77a710 710 0 0 0 -13.95-95.72 513.1 513.1 0 0 0 -14.3-53.61 2.51 2.51 0 0 0 -4.83 1.33z"/><path d="m676 608.14c14.49 68.28 34.38 136.5 38.58 206.48.58 9.65.84 19.32.72 29-.13 10-1.26 20-1 30 .11 4.23 6.63 5.44 7.62 1 3.73-16.77 2.83-35.22 2.1-52.29a509.67 509.67 0 0 0 -5.23-52.33c-5.23-35.44-13.87-70.16-22.74-104.83-5-19.5-10-39-15.37-58.36-.84-3.06-5.38-1.77-4.73 1.3z"/></g><path d="m504 730.78c3.23 3.44 9.35 1.15 12-2.73s3.4-8.81 5.69-12.94c7.36-13.28 25.94-13 41-15 27.55-3.63 52.38-20.86 68-43.81 11-16.07 17.65-34.7 20.69-54-3.39.16-6.76.33-10.09.51q-140.46 7.81-281 6.78c2.85 20.91 13.19 40.89 28.16 55.95 19.88 20 47.23 31.72 75.2 35.42 7.69 1 15.59 1.49 22.81 4.35s13.84 8.72 15.08 16.39c.58 3.16.3 6.76 2.46 9.08z" fill="#f7cebf"/><g fill="#1a1c3f"><path d="m497.4 737.4c7.11 6 16.63 5.49 23.51-.8 5.6-5.11 5.63-12.82 10-18.45 3.26-4.22 9.25-5.5 14.18-6.46 6.65-1.28 13.44-1.61 20.13-2.56 31-4.37 58.22-24.34 75.06-50.26 10.56-16.25 17.09-35 20.21-54.06.93-5.65-2.4-12.16-9-11.85-75.44 3.5-150.79 6.75-226.33 7.29q-32.39.24-64.76 0c-6.69 0-9.89 6-9 11.85 5.21 35.75 29.59 66 61.19 82.51a152.73 152.73 0 0 0 51.2 15.73c8 1 17.94 1.18 24.54 6.6 6 4.95 3.29 12.65 7.67 18.56 3 4.06 8.11 6.11 12.81 3.36 4-2.34 6.39-8.72 3.36-12.81-1.87-2.52-1.19-6.58-2.17-9.61a29.53 29.53 0 0 0 -7-11.34c-6.42-6.61-15.34-10-24.26-11.52-8.44-1.44-16.94-2-25.32-3.91a131.26 131.26 0 0 1 -24.07-7.7c-31.28-13.73-54.89-40.5-59.9-74.85l-9 11.86q114.12.79 228.2-4.16c21-.92 41.92-2.16 62.89-3.13l-9-11.86c-4.61 28.21-17 55-39.73 73.07a87.06 87.06 0 0 1 -34.88 16.82c-11.62 2.61-24 1.86-35.29 5.91-7 2.53-13.14 6.42-17.5 12.61-2.17 3.08-3.46 6.68-4.74 10.2a22.63 22.63 0 0 1 -1.66 4s-.74 1.25-.71.59c-.75.37-.77.44-.05.2a2.38 2.38 0 0 1 2.78.93c-3.86-3.26-9.46-3.79-13.24 0-3.47 3.34-4.01 9.96-.12 13.24z"/><path d="m155.75 786.82a446.06 446.06 0 0 0 622.75 67.24 440.68 440.68 0 0 0 61.07-58.53q3.18-3.71 6.27-7.46c1.49-1.81 3.2-3.56 3.84-5.88.71-2.61.13-5.67-.06-8.32-.68-9.07-1.65-18.11-2.83-27.13-2.26-17.32-4.8-34.83-8.85-51.84-5.53-23.2-16.19-45.48-33.14-62.5-14.8-14.87-33.66-24.92-53.62-31-43.8-13.32-90.62-8.82-135.59-6.58q-111 5.52-222.12 5.54c-47.69 0-98.3-4.07-144.29 11.37-21.42 7.19-41.6 18.92-56.28 36.37-19.07 22.68-27.57 51.94-33.21 80.54a418 418 0 0 0 -6.69 51.56c-.36 5 4.56 9.37 9.36 9.37 5.37 0 9-4.3 9.37-9.37a370 370 0 0 1 7.72-54.73c3.49-15.59 7.68-31.7 15-46 10.73-21.08 28-36.37 49.52-45.8 20.32-8.92 43.42-12.38 65.47-13.82 26.64-1.74 53.42-.77 80.1-.75q117.54.09 235-6c24.36-1.26 48.73-2.88 73.13-1.56 20.79 1.13 42.25 4.35 61.55 12.56 19 8.07 35.33 21.33 46.21 39.28a124.08 124.08 0 0 1 14 34.39c4.35 17.26 7 35.19 9.2 52.84q1.8 14.5 2.72 29.09l2.75-6.62c-62.65 76.63-150.1 130.33-247.1 150.19-99 20.25-204.09 4.28-292.44-44.64a435 435 0 0 1 -125.56-105.05c-3.2-3.91-9.91-3.33-13.24 0-3.88 3.87-3.22 9.32-.01 13.24z"/><path d="m919.85 503.92q0 17.51-1.38 35-.66 8.28-1.62 16.52c-.16 1.37-.34 2.74-.5 4.1-.57 4.74.62-4.24-.06.48-.46 3.16-.92 6.33-1.43 9.48a435 435 0 0 1 -15.55 64.38q-5.14 15.87-11.49 31.32c-.37.89-1.94 5.19-.17.43-.46 1.24-1 2.45-1.58 3.66q-1.59 3.64-3.25 7.26-3.59 7.83-7.48 15.5a437.19 437.19 0 0 1 -33.34 55.13c-3 4.28-6.17 8.49-9.34 12.67-2.74 3.62 2.55-3.2-.28.36-.82 1-1.62 2-2.44 3.08q-2.87 3.59-5.8 7.11-10.44 12.6-21.83 24.34t-23.61 22.65q-5.88 5.22-11.93 10.23-2.52 2.1-5.07 4.14c-1 .83-2.05 1.64-3.08 2.45l-2.06 1.62c2.06-1.59 2.29-1.76.68-.53a451.57 451.57 0 0 1 -55 35.87q-14.49 8-29.55 14.82c-2.41 1.1-4.84 2.17-7.27 3.23-.89.38-5 2.35-.42.19-1.2.56-2.46 1-3.69 1.52q-7.39 3-14.91 5.77a434.1 434.1 0 0 1 -64.78 18.11q-8 1.59-16.12 2.88c-2.71.43-5.42.82-8.14 1.21-4.71.68 4.27-.51-.47.06-1.82.22-3.64.45-5.47.66-11 1.26-22.14 2.1-33.24 2.52a443.88 443.88 0 0 1 -69.73-2.84c-1.35-.17-2.76-.25-4.09-.52 5.12 1 .55.08-.47-.07q-4.06-.59-8.13-1.24-8.75-1.41-17.43-3.19-15.9-3.25-31.53-7.68-16.11-4.6-31.8-10.36-7.5-2.78-14.89-5.81c-.9-.37-5.19-1.94-.43-.17-1.24-.46-2.45-1-3.66-1.57q-4.26-1.86-8.47-3.81a436.12 436.12 0 0 1 -56.45-31.36 327.19 327.19 0 0 1 -26.72-19c3.9 3.16.39.29-.35-.3-1-.81-2.05-1.62-3.08-2.45q-3.06-2.46-6.08-5-6.54-5.44-12.86-11.15a439.59 439.59 0 0 1 -44.37-46.25q-2.5-3-5-6.1c-.82-1-1.62-2.06-2.44-3.08-2.83-3.56 2.47 3.26-.28-.36-3.43-4.53-6.82-9.1-10.09-13.74q-9.47-13.44-17.91-27.55t-15.84-28.91q-3.26-6.52-6.29-13.14-1.67-3.62-3.25-7.26c-.53-1.21-1.12-2.42-1.58-3.66 1.87 5-.27-.7-.67-1.66a434.85 434.85 0 0 1 -20.42-63.79q-3.84-16.21-6.44-32.7c-.39-2.49-.75-5-1.11-7.46-.68-4.72.51 4.26 0-.48-.17-1.36-.34-2.73-.5-4.1q-1-8.92-1.73-17.9a442.45 442.45 0 0 1 .22-69.93q.67-8.26 1.67-16.5c.16-1.35.25-2.76.51-4.1-1 5.12-.07.55.08-.47.38-2.71.8-5.42 1.24-8.12q2.71-16.78 6.74-33.31a450 450 0 0 1 20.81-63.62c1.74-4.27-1.67 3.8.17-.42.54-1.22 1.06-2.44 1.59-3.65q1.61-3.64 3.27-7.26 3.33-7.2 6.93-14.29 7.46-14.7 16-28.81t18.07-27.43c3-4.26 6.07-8.58 9.37-12.64-3.17 3.9-.29.39.29-.35.81-1 1.63-2 2.45-3.07q2.88-3.59 5.82-7.09a439.63 439.63 0 0 1 44.64-46q5.87-5.22 11.92-10.24 3-2.51 6.1-5c1-.82 2.06-1.63 3.08-2.44 1.6-1.25 1.38-1.08-.68.51l2.08-1.59q13.07-9.93 26.84-18.86a436.57 436.57 0 0 1 56.66-31c2.42-1.1 4.84-2.17 7.28-3.23.88-.38 5-2.35.41-.19 1.2-.56 2.46-1 3.69-1.52q8-3.27 16.17-6.22 15.75-5.7 31.92-10.18 15.57-4.28 31.57-7.46 8-1.58 16.12-2.87c2.71-.43 5.43-.82 8.14-1.21 4.71-.69-4.26.5.47-.06l5.47-.66a443.24 443.24 0 0 1 69.8-2.39q16.63.75 33.19 2.73c1.35.16 2.76.25 4.1.51-5.13-1-.55-.07.46.08 2.72.39 5.42.8 8.13 1.24q8.74 1.41 17.44 3.19a433.92 433.92 0 0 1 64.61 18.51q6.87 2.55 13.65 5.34c.89.37 5.18 1.94.43.17 1.23.46 2.44 1 3.65 1.57q4.26 1.86 8.47 3.81 15 6.93 29.44 15t28.08 17.04q6.57 4.34 13 8.92 3.21 2.29 6.37 4.63l3.15 2.36c.83.63 5.74 4 1.41 1.06 8.55 5.85 16.41 13.27 24.09 20.19q12.15 11 23.47 22.79t21.73 24.47c1.66 2 3.31 4.06 4.94 6.12.8 1 1.69 2 2.43 3.09-2.82-4.12-.32-.41.27.36q5.16 6.79 10 13.78a436.22 436.22 0 0 1 33 55.38q3.56 7.11 6.84 14.34c1.1 2.42 2.18 4.84 3.23 7.28.39.89 2.36 5 .2.42.75 1.59 1.36 3.28 2 4.91q6.13 15.18 11.1 30.77a434.84 434.84 0 0 1 15.37 65.17c.42 2.7.89 5.42 1.19 8.14-.58-5.24-.08-.5 0 .48.17 1.37.33 2.74.49 4.11q.93 8.25 1.57 16.53 1.26 16.76 1.27 33.58c0 9.8 8.6 19.18 18.72 18.73s18.75-8.23 18.73-18.73a453.54 453.54 0 0 0 -83.22-262.66 468.38 468.38 0 0 0 -96.82-100.22 455.48 455.48 0 0 0 -626.48 71.47 467.26 467.26 0 0 0 -72 120.25c-17.93 43.6-28.4 90-32 136.93a457.51 457.51 0 0 0 11.68 143.08 456.75 456.75 0 0 0 253.84 306.15 464.92 464.92 0 0 0 137.6 38 457.45 457.45 0 0 0 143.76-6.39 452.23 452.23 0 0 0 129.87-48.29 457.61 457.61 0 0 0 185.72-194.2 450.75 450.75 0 0 0 42.44-132.6 478.76 478.76 0 0 0 5.69-71.44c0-9.8-8.62-19.18-18.73-18.73s-18.71 8.19-18.72 18.69z"/></g><path d="m385.58 624.77c-6.82-90.79-8.92-235.54-6.26-326.55.26-9 .72-18.56 5.59-26.16 3.62-5.65 9.29-9.61 15-13.13 34.67-21.4 75.25-31.55 115.76-35.87 25.57-2.72 52.72-2.94 75.43 9.13 8.1 4.31 15.64 10.38 19.59 18.67 3 6.22 3.7 13.24 4.36 20.1 9 93.19 11.49 240.61 7.46 334.14-.32 7.49-.78 15.31-4.54 21.8-5.8 10-17.86 14.36-29.07 17.31a328.43 328.43 0 0 1 -204.7-12.89" fill="#fff"/><path d="m407.19 640.86c-6.82-90.79-6.52-245.32-3.86-336.33.26-9 .72-18.55 5.59-26.16 3.61-5.64 9.29-9.61 15-13.12 34.66-21.4 75.25-31.55 115.75-35.87 25.58-2.72 52.73-2.95 75.44 9.13 8.1 4.3 15.64 10.38 19.58 18.66 3 6.23 3.71 13.25 4.37 20.11 9 93.19 11.49 240.61 7.46 334.14-.32 7.49-.78 15.31-4.54 21.8-5.8 10-17.86 14.35-29.07 17.3-67.26 17.71-142.94 22-207.45-4" fill="#f7cebf"/><path d="m557.33 193.05c-26.53-9.07-55.46-9.29-83.12-4.71s-54.32 13.78-80.69 23.3c-8.41 3-17.08 6.27-23.46 12.53-7.45 7.31-10.85 18-11.37 28.39s1.54 20.78 3.59 31c1.4 6.94 3.53 14.86 10 17.82 3.84 1.77 8.29 1.26 12.47.67a483.09 483.09 0 0 0 132.25-38.87 17.71 17.71 0 0 1 6.77-2.08c2.9-.09 5.62 1.26 8.23 2.54a318.5 318.5 0 0 0 56.44 21.29c9.21 2.51 20.45 4.08 27-2.8 3.48-3.62 4.73-8.78 5.69-13.71q2-10.44 3.06-21.06c.82-8.46 1.07-17.44-2.91-25-3.42-6.43-9.55-11-15.84-14.64a108.5 108.5 0 0 0 -59.08-14.54" fill="#eab642"/><path d="m615.54 282.13.48-.54c-.32-3.61-.64-7.16-1-10.63-.66-6.86-1.4-13.88-4.36-20.1-3.95-8.29-11.49-14.36-19.59-18.67-22.71-12.07-49.86-11.85-75.43-9.13-40.51 4.32-81.09 14.47-115.76 35.87-5.7 3.52-11.37 7.48-15 13.13-4.87 7.6-5.33 17.13-5.59 26.16q-.06 2.17-.12 4.38a46.13 46.13 0 0 0 5.5-.54 483.09 483.09 0 0 0 132.33-38.88 17.71 17.71 0 0 1 6.77-2.08c2.9-.09 5.62 1.26 8.23 2.54a318.5 318.5 0 0 0 56.44 21.29c9.25 2.51 20.49 4.07 27.1-2.8z" fill="#ef6348"/><g fill="#1a1c3f"><path d="m413.15 295.31c2.13 13.79-3 27.57-8 40.59-5.6 14.52-11.37 29.34-21.46 41.17-2.44-3.38-2.75-7.81-2.95-12q-1.17-25-1.06-50a12.19 12.19 0 0 1 .74-5c2-4.44 8.36-5.08 11.2-9"/><path d="m578 281.63a64.28 64.28 0 0 0 2.48 41c4.57 11.18 12.2 20.81 19.73 30.26l14.79 18.58c2-2.27 2.09-5.59 2.07-8.62q-.26-39-.5-78"/><path d="m384.2 635.65c5.58 0 5.59-8.67 0-8.67s-5.59 8.67 0 8.67z"/><path d="m389.91 624.77c.52-28.27-1.18-56.68-1.4-85-.24-32-1.06-64-1.17-96-.1-31.2-.49-62.4-.2-93.61q.19-20.85.68-41.69c.34-13.95-1.21-29.37 11.32-38.53 13.48-9.87 29.64-17 45.31-22.52a299.92 299.92 0 0 1 51.55-12.96c17-2.79 34.36-4.72 51.58-4.06 15.95.61 33.27 3.93 46.28 13.79 12.56 9.51 12.34 24.64 13.58 39 1.22 14 2.22 28 3.08 42 1.92 31.29 3.13 62.63 4.26 94 2.19 60.62 2.26 121.45-.17 182.07-.29 7.24-.08 15-3.59 21.57-4.87 9.11 9 17.24 13.89 8.11 7.35-13.71 5.92-31.06 6.4-46.2s.78-30.19 1-45.29c.4-33 0-66.08-.32-99.13q-.51-50.11-3.14-100.15-1.23-22.79-3-45.55-.8-10.26-1.75-20.51c-.83-8.87-1.52-17.85-5.16-26.1-7.13-16.14-24.25-25.48-40.42-30.35-17.47-5.27-36.2-5.59-54.26-4.16-37 2.91-74 10.75-107.77 26.53-15 7-34.18 15.81-41.32 31.77-6.24 14-4.77 30.92-5.08 45.91-.64 31.29-.75 62.59-.55 93.88.42 64.91 3.22 129.73 9.26 194.36.63 6.73 1.51 13.3 2.63 20 .83 4.94 8.43 3.58 8.51-1.16z"/><path d="m455 381.11c-2.68-.21-5.32-.65-7.42 1.5-1.7 1.74-2.24 5.12-2.2 7.45a8.47 8.47 0 0 0 3.9 7.25 7.45 7.45 0 0 0 7.81.09c2.26-1.47 3.41-4.64 1.85-7.06-1.46-2.26-4.64-3.42-7.06-1.85a3.66 3.66 0 0 1 2.36-.18c.66.35.75.38.25.1a1.49 1.49 0 0 1 .78.8c-.24-.43-.24-.43 0 0 0 .54 0 .51 0-.1 0-.33 0-.65 0-1s.05-.65.09-1a2.88 2.88 0 0 1 -.19.87l-1.67 1.68.38-.18-2.35.64c1.15-.13 2.31-.15 3.46-.21a4.42 4.42 0 1 0 0-8.84z"/><path d="m552.2 381.11c-2.68-.21-5.32-.65-7.42 1.5-1.7 1.74-2.24 5.12-2.2 7.45a8.47 8.47 0 0 0 3.9 7.25 7.45 7.45 0 0 0 7.81.09c2.26-1.47 3.41-4.64 1.85-7.06-1.46-2.26-4.64-3.42-7.06-1.85a3.66 3.66 0 0 1 2.36-.18c.66.35.75.38.25.1a1.49 1.49 0 0 1 .78.8c-.24-.43-.24-.43 0 0 0 .54 0 .51 0-.1 0-.33 0-.65 0-1s0-.65.09-1a2.88 2.88 0 0 1 -.19.87l-1.67 1.68.38-.18-2.35.64c1.15-.13 2.31-.15 3.46-.21a4.42 4.42 0 0 0 0-8.84z"/></g><path d="m376.46 381.57a12.23 12.23 0 0 0 -7.44-4.13 11.61 11.61 0 0 0 -9.21 3.63 21.58 21.58 0 0 0 -4.94 8.85 39.37 39.37 0 0 0 5.59 34.5 20.21 20.21 0 0 0 7.13 6.48 10.33 10.33 0 0 0 9.36.15" fill="#f7cebf"/><path d="m379.49 379.8c-4.8-8.48-14.65-10.83-22.78-5.15s-11.09 17.56-11.2 26.9a50.59 50.59 0 0 0 8.63 28.45c6.46 9.4 21 17 28.9 4.62 2.33-3.64.18-9.48-4.21-10.35-5.33-1.06-9.28-1.64-12.77-6.16a27.35 27.35 0 0 1 -5.22-14.19c-.73-7.82 2.17-25.83 13.85-19.31a3.54 3.54 0 0 0 4.8-4.8z" fill="#1a1c3f"/><path d="m624.87 381.57a12.17 12.17 0 0 1 7.44-4.13 11.57 11.57 0 0 1 9.2 3.63 21.6 21.6 0 0 1 5 8.85 39.4 39.4 0 0 1 -5.6 34.5 20.21 20.21 0 0 1 -7.13 6.48 10.33 10.33 0 0 1 -9.36.15" fill="#f7cebf"/><g fill="#1a1c3f"><path d="m626.64 384.6c11.68-6.53 14.54 11.5 13.85 19.31a27.5 27.5 0 0 1 -4.91 13.78c-3.58 4.82-7.47 5.45-13.08 6.57-4.39.87-6.54 6.71-4.22 10.35 7.66 12 21.88 5.21 28.43-4a50.46 50.46 0 0 0 9.11-29.09c-.11-9.19-3-20.41-10.51-26.36-8.07-6.36-18.52-4.14-23.48 4.61a3.54 3.54 0 0 0 4.81 4.8z"/><path d="m494 382.79c-2.67 7.08-2.42 15.4-2.93 22.86s-1.09 15-1.25 22.48c-.19 9.51 14.57 9.5 14.76 0 .15-7.49-.13-15-.33-22.48s.34-15.71-2-22.86c-1.39-4.15-6.73-3.91-8.21 0z"/><path d="m241.65 709.72c-4 23.21-7 46.44-9.2 69.88-1.1 11.49-2 23-2.58 34.5q-.45 8.88-.8 17.75c-.23 6-1.62 13.31 1.9 18.53 3.26 4.82 9.46 4.64 12.75 0 3.44-4.87 2.35-11.84 2.37-17.54s.08-11.18.17-16.77q.28-17.73.67-35.48c.52-23.27 1.47-46.56 2.59-69.81.21-4.43-7.11-5.56-7.87-1.06z"/><path d="m744.49 689.92c3.56 23.92 6.27 47.94 9.54 71.9s5 48 8.84 71.73l2.33-8.85.57-.42c-8.46 1.31-7.11 13.67 0 15.82 3.83 1.15 6.84.43 10.45-1.12 2.68-1.16 4.7-5 4.5-7.85-1.76-24.27-6.8-48.67-11.32-72.55s-10.69-47.4-17-70.83c-1.41-5.21-8.64-2.9-7.89 2.17z"/></g><path d="m558.15 190.05c-48.17-17.26-99.23-6.16-146.22 9.38-20.77 6.87-46.24 12.27-55.32 34.73-4.37 10.81-4.51 22.57-3 34 1.32 10 2.41 22.36 7.95 31.11 6.16 9.73 16.24 9.71 26.5 8.11q18.68-2.92 37.07-7.35a485.91 485.91 0 0 0 71.08-22.95c5.48-2.26 10.93-4.59 16.33-7 2.6-1.18 5.15-2.56 7.85-3.5 4.31-1.52 7.09 0 10.94 1.93a334.74 334.74 0 0 0 33.92 14.69c16.2 6 46.52 19 57.79-1.77 2.85-5.24 3.83-11.32 4.83-17.12a188 188 0 0 0 2.59-21.16c.76-12.6-2-24.57-11.81-33.16-9.54-8.39-22.09-13.94-34.13-17.62-12.62-3.86-26.23-5.86-39.28-3.47-5.43 1-3.46 8.4 1.21 8.91 21.31 2.32 41.9 5.2 60.14 17.53 8.83 6 12.51 13.77 12.33 24.37a135.44 135.44 0 0 1 -4.24 31.68c-1.16 4.39-3.11 8.06-7.65 9.5-4.07 1.3-8.73.68-12.83-.14-10.05-2-20-5.41-29.64-8.77-10.58-3.67-20.78-8.06-31-12.67-4.11-1.85-8.17-3.28-12.72-2.26-5.17 1.15-10.27 4.32-15.13 6.36a479.54 479.54 0 0 1 -61.94 21.07q-15.6 4.15-31.47 7.26c-10.53 2.06-21.64 4.69-32.39 5-10.28.35-11.19-10.64-12.73-18.57-2.06-10.62-4-21.85-1.67-32.6 2-9.26 6.72-17.1 14.94-22 8.86-5.3 19.26-8.29 28.92-11.77 46.63-16.8 98.13-30.94 147.13-15.8 3.86 1.2 5.38-4.66 1.65-6z" fill="#eab642"/><g fill="#1a1c3f"><path d="m386.79 314.79c7.24.6 14.84-1.11 22-2.37 7.62-1.34 15.1-3.11 22.59-5.08 14.21-3.73 28.46-7.38 42.15-12.79a234.24 234.24 0 0 0 69.64-43c5.11-4.54-2.44-12.09-7.5-7.5a217.58 217.58 0 0 1 -67.2 41.76c-12.9 5-26.29 8.65-39.61 12.36q-10.21 2.85-20.44 5.65c-7.35 2-15.15 3.07-22.3 5.7a2.68 2.68 0 0 0 .71 5.24z"/><path d="m539.53 280.47c5.65 0 9.05-2.34 13.25-6s7.88-7.36 12.25-10.65c4.67-3.51.72-10.91-4.69-8-4.51 2.41-8 6.48-11.62 10.05a118.28 118.28 0 0 1 -11.27 9.64c-2.11 1.63-.25 5 2.08 5z"/><path d="m562.67 292c4.62-.48 7.61-2.2 11.2-5 3.75-2.91 9.87-4.71 12.16-8.9a4.76 4.76 0 0 0 -4.06-7.08c-4.41-.18-8.09 3.63-11.17 6.45-1.45 1.33-2.8 2.75-4.13 4.19s-2.73 4.12-4.76 4.66c-3.06.81-2.56 6 .76 5.67z"/><path d="m434.18 360.31c3.48.18 6.95-.91 10.42-1.2a82 82 0 0 1 11-.05c7.58.36 14.92 1.58 22-1.83 3.78-1.82 4.7-6.34 4.08-10-.88-5.26-7.12-7.26-11.62-5.92a60 60 0 0 1 -12.77 2c-8.47.72-20.81 1.13-26.8 8.05a5.31 5.31 0 0 0 3.71 8.94z"/><path d="m576.25 352.12c-5.71-4.86-12.46-7.26-19.78-8.65a92.79 92.79 0 0 0 -10.87-1.47c-1.65-.11-3.26 0-4.9-.06-1.21 0-3.8-1-2.45.17l-2 15.19a12.86 12.86 0 0 0 3.71-3l-15-8.74-.19.89c-.87 4.14 1.19 9 5.68 10l.79.18c12.62 2.89 15.59-16.74 2.39-17.65a13.28 13.28 0 0 0 -4.81.62c-6.24 1.9-10.35 11.46-4.27 16.17 7.33 5.68 14.69 5.36 23.47 4.26a78.76 78.76 0 0 1 23.19.71c4.53.76 9.36-4.92 5-8.62z"/><path d="m478.86 470.47c-1.47 11.67 13.21 11.37 21.29 11.38 8.76 0 25 .18 25-12.05 0-7.38-11.48-7.39-11.47 0 0-.74-4.62.45-5.4.56a75 75 0 0 1 -9.11.69c-2.57.05-5.14-.05-7.71-.22-.85-.06-3-.63-3.76-.28-1.08-.27-1.18-.09-.28.52.68.93.88.74.59-.6 0-6.06-8.45-5.68-9.16 0z"/></g><path d="m738 613.46a72.94 72.94 0 0 1 13 25.39 70.05 70.05 0 0 1 2.5 13.54c.38 4.6-.09 9.25.33 13.81.29 3.19 5 4.29 5.89.8 2.44-9.54-.17-21.38-3.22-30.51a79.77 79.77 0 0 0 -15.04-26.49c-2.07-2.43-5.38 1-3.46 3.47z" fill="#34c6a0"/></svg>