<svg width="176" height="179" viewBox="0 0 176 179" fill="none" xmlns="http://www.w3.org/2000/svg">
<g id="Group 1171280371">
<path id="Vector" d="M140.09 96.4759C140.201 94.5445 140.33 92.634 140.517 90.7586C142.885 66.3352 129.7 34.7938 98.0816 31.033C79.6508 28.8416 58.8989 27.8513 44.1972 37.619C35.0006 43.7259 29.8273 53.1021 26.4248 62.451C23.3205 70.9831 21.3964 79.9364 22.502 88.7572C25.3949 111.802 47.668 129.125 68.5111 144.246C76.3661 149.947 84.8075 155.879 95.1647 157.157C111.581 159.186 127.34 148.306 133.725 135.423C139.71 123.355 139.361 109.408 140.09 96.4759Z" fill="#FDD994" fill-opacity="0.4"/>
<path id="Vector_2" d="M53.4865 122.789C54.8024 123.966 56.0939 125.142 57.327 126.341C73.4248 141.9 103.423 150.378 124.033 129.903C136.047 117.968 148.519 103.69 149.879 87.6322C150.732 77.5888 146.969 68.5665 142.222 60.8259C137.889 53.7622 132.587 47.3034 125.661 43.0863C107.565 32.0719 82.5679 38.1645 59.9539 44.4846C51.4298 46.865 42.4085 49.534 35.6243 56.2148C24.868 66.8019 23.7032 84.2474 29.2836 96.1274C34.5082 107.258 44.6651 114.927 53.4865 122.789Z" fill="#FDD994" fill-opacity="0.8"/>
<g id="Group">
<g id="Group_2">
<g id="Vector_3">
<path d="M112.689 88.8076C111.841 88.8076 110.994 88.4849 110.349 87.8403L88.5197 66.0027C87.9736 65.4566 87.024 65.4566 86.4779 66.0027L64.6503 87.8403C63.3593 89.1285 61.2596 89.1285 59.9686 87.8412C58.6772 86.5493 58.6772 84.4496 59.9682 83.1586L85.1586 57.9686C86.4478 56.6776 88.5475 56.6767 89.8394 57.9686L115.029 83.1586C116.32 84.4496 116.32 86.5493 115.029 87.8403C114.384 88.4849 113.536 88.8076 112.689 88.8076ZM87.499 63.7124C88.3834 63.7124 89.2149 64.0571 89.8403 64.6825L111.668 86.5201C112.231 87.0817 113.147 87.0817 113.709 86.5201C114.272 85.9567 114.272 85.0413 113.709 84.4788L88.5197 59.2888C87.9572 58.7271 87.0413 58.7271 86.4788 59.2888L61.2884 84.4788C60.7258 85.0413 60.7258 85.9576 61.2884 86.5201C61.8509 87.0817 62.7672 87.0817 63.3306 86.5192L85.1577 64.6825C85.7832 64.0571 86.6147 63.7124 87.499 63.7124Z" fill="#7446B3"/>
<path d="M114.369 87.1802H114.378M112.689 88.8076C111.841 88.8076 110.994 88.4849 110.349 87.8403L88.5197 66.0027C87.9736 65.4566 87.024 65.4566 86.4779 66.0027L64.6503 87.8403C63.3593 89.1285 61.2596 89.1285 59.9686 87.8412C58.6772 86.5493 58.6772 84.4496 59.9682 83.1586L85.1586 57.9686C86.4478 56.6776 88.5475 56.6767 89.8394 57.9686L115.029 83.1586C116.32 84.4496 116.32 86.5493 115.029 87.8403C114.384 88.4849 113.536 88.8076 112.689 88.8076ZM87.499 63.7124C88.3834 63.7124 89.2149 64.0571 89.8403 64.6825L111.668 86.5201C112.231 87.0817 113.147 87.0817 113.709 86.5201C114.272 85.9567 114.272 85.0413 113.709 84.4788L88.5197 59.2888C87.9572 58.7271 87.0413 58.7271 86.4788 59.2888L61.2884 84.4788C60.7258 85.0413 60.7258 85.9576 61.2884 86.5201C61.8509 87.0817 62.7672 87.0817 63.3306 86.5192L85.1577 64.6825C85.7832 64.0571 86.6147 63.7124 87.499 63.7124Z" stroke="#7446B3" stroke-width="0.2"/>
</g>
</g>
<g id="Group_3">
<path id="Vector_4" d="M107.909 116.752H67.082C66.5665 116.752 66.1484 116.335 66.1484 115.819V84.0879C66.1484 83.5719 66.5665 83.1543 67.082 83.1543C67.5976 83.1543 68.0156 83.5719 68.0156 84.0879V114.885H106.976V84.0879C106.976 83.5719 107.394 83.1543 107.909 83.1543C108.425 83.1543 108.843 83.5719 108.843 84.0879V115.819C108.843 116.335 108.425 116.752 107.909 116.752Z" fill="#7446B3" stroke="#7446B3" stroke-width="0.2"/>
</g>
<g id="Group_4">
<path id="Vector_5" d="M115.066 116.75H59.9336C59.418 116.75 59 116.332 59 115.816C59 115.3 59.418 114.883 59.9336 114.883H115.066C115.582 114.883 116 115.3 116 115.816C116 116.332 115.582 116.75 115.066 116.75Z" fill="#7446B3" stroke="#7446B3" stroke-width="0.2"/>
</g>
<g id="Group_5">
<path id="Vector_6" d="M87.5025 95.8545C87.3488 95.8545 87.1952 95.8162 87.0562 95.7405C86.691 95.5417 78.1172 90.7908 78.1172 83.6164C78.1172 80.6269 80.5492 78.1953 83.5383 78.1953C85.0604 78.1953 86.4845 78.8344 87.4979 79.9221C88.5049 78.8335 89.9322 78.1953 91.4666 78.1953C94.4475 78.1953 96.8722 80.6269 96.8722 83.6164C96.8722 90.7899 88.3139 95.5417 87.9497 95.7405C87.8102 95.8162 87.6565 95.8545 87.5025 95.8545ZM83.5383 80.0625C81.5785 80.0625 79.9844 81.6571 79.9844 83.6164C79.9844 88.8442 85.8199 92.8048 87.5011 93.8368C89.1791 92.802 95.005 88.8315 95.005 83.6164C95.005 81.6571 93.4177 80.0625 91.4666 80.0625C90.1419 80.0625 88.9398 80.7883 88.3299 81.9553C88.1698 82.2625 87.8526 82.4549 87.5066 82.4567H87.5025C87.1578 82.4567 86.841 82.2671 86.6787 81.9626C86.0537 80.7901 84.8503 80.0625 83.5383 80.0625Z" fill="#7446B3" stroke="#7446B3" stroke-width="0.2"/>
</g>
<g id="Group_6">
<path id="Vector_7" d="M101.094 116.75C100.579 116.75 100.161 116.333 100.161 115.817V105.646C100.161 102.769 97.8192 100.428 94.9414 100.428C92.064 100.428 89.7227 102.769 89.7227 105.646V115.817C89.7227 116.333 89.3047 116.75 88.7891 116.75C88.2735 116.75 87.8555 116.333 87.8555 115.817V105.646C87.8555 101.74 91.0342 98.5605 94.9414 98.5605C98.849 98.5605 102.028 101.74 102.028 105.646V115.817C102.028 116.333 101.61 116.75 101.094 116.75Z" fill="#7446B3" stroke="#7446B3" stroke-width="0.2"/>
</g>
</g>
</g>
</svg>
