<svg width="145" height="143" viewBox="0 0 145 143" fill="none" xmlns="http://www.w3.org/2000/svg">
<g id="Group 1171280370">
<path id="Vector" d="M14.1604 100.98C15.0601 102.649 16.1013 104.334 17.3032 106.058C24.1135 115.828 35.3899 121.011 46.9724 123.212C58.5548 125.414 70.6674 124.985 82.5969 125.468C87.6698 125.671 92.7848 126.039 97.8874 124.932C108.565 122.609 118.028 113.824 123.4 103.357C128.773 92.8901 130.426 80.9559 129.911 69.6463C129.446 59.4977 127.13 49.2655 121.044 42.0486C117.788 38.1902 113.607 35.3664 109.477 32.5817C103.035 28.2464 96.5938 23.911 90.1522 19.5757C86.6691 17.2301 83.1442 14.8667 79.1233 13.6217C65.9241 9.54311 47.2024 18.9875 38.0333 30.3951C35.8356 33.1278 33.493 35.7095 31.0957 38.2451C26.4887 43.1114 21.7467 47.9581 18.2277 53.7861C15.2325 58.7489 13.0607 64.1514 11.736 69.7241C8.71367 82.4212 9.02641 91.4472 14.154 100.984L14.1604 100.98Z" fill="#FDD994" fill-opacity="0.4"/>
<path id="Vector_2" d="M22.6287 39.7778C21.75 41.24 20.9244 42.8186 20.1425 44.5395C15.7098 54.2914 16.875 65.3934 20.4872 75.364C24.0993 85.3346 29.9895 94.5082 35.0903 103.959C37.2613 107.976 39.3239 112.102 42.5224 115.541C49.2188 122.736 60.3579 126.025 70.9207 125.377C81.4836 124.73 91.4746 120.532 99.9875 114.944C107.625 109.926 114.478 103.44 117.268 95.4198C118.759 91.1301 119.024 86.5996 119.283 82.1268C119.681 75.154 120.079 68.1811 120.476 61.2083C120.693 57.4374 120.903 53.6259 120.021 49.944C117.119 37.8613 101.221 27.7122 88.1887 25.8541C85.0661 25.408 81.9939 24.7805 78.9322 24.0896C73.0534 22.7587 67.1278 21.3145 61.0043 21.2667C55.7906 21.2271 50.6146 22.0262 45.6956 23.5588C34.486 27.0475 27.647 31.4316 22.6224 39.7748L22.6287 39.7778Z" fill="#FDD994" fill-opacity="0.8"/>
<g id="Group 1171280289">
<g id="Group 1171280288">
<path id="Vector_3" d="M96 93H49V46H96V93Z" stroke="#7446B3" stroke-width="2" stroke-linecap="round" stroke-linejoin="round"/>
</g>
</g>
<circle id="Ellipse 1260" cx="72.5" cy="71.5" r="17.5" stroke="#7446B3" stroke-width="2" stroke-linecap="round" stroke-linejoin="round"/>
<line id="Line 45" x1="49.5642" y1="91.6546" x2="72.6546" y2="46.4358" stroke="#7446B3" stroke-width="2" stroke-linecap="round" stroke-linejoin="round"/>
<line id="Line 46" x1="94.6584" y1="91.5528" x2="72.5528" y2="47.3416" stroke="#7446B3" stroke-width="2" stroke-linecap="round" stroke-linejoin="round"/>
</g>
</svg>
