<svg width="171" height="171" viewBox="0 0 171 171" fill="none" xmlns="http://www.w3.org/2000/svg">
<g id="Group 1171280369">
<path id="Vector" d="M153.555 76.1729C153.33 74.1899 152.973 72.1422 152.476 69.9992C149.661 57.8535 140.736 48.7219 130.358 42.4603C119.981 36.1987 108.069 32.3779 96.6885 27.7108C91.848 25.7287 87.0308 23.5668 81.6534 22.8831C70.3993 21.4567 57.8164 26.9107 48.5481 35.4792C39.2798 44.0476 33.0491 55.3858 29.1628 66.8607C25.6793 77.1592 23.9569 88.1899 27.0597 97.5318C28.721 102.527 31.6806 106.814 34.6054 111.044C39.1708 117.633 43.7361 124.222 48.3014 130.811C50.7694 134.375 53.271 137.972 56.6872 140.626C67.9048 149.329 89.7211 146.464 103.036 138.289C106.226 136.33 109.499 134.574 112.807 132.883C119.161 129.639 125.639 126.462 131.311 121.876C136.14 117.971 140.34 113.338 143.786 108.237C151.64 96.6171 154.837 87.4935 153.563 76.1708L153.555 76.1729Z" fill="#FDD994" fill-opacity="0.4"/>
<path id="Vector_2" d="M127.823 129.162C129.122 127.964 130.399 126.64 131.67 125.165C138.876 116.807 140.727 105.668 139.765 94.9928C138.803 84.3179 135.293 73.825 132.666 63.2684C131.547 58.7799 130.568 54.2141 128.239 50.0215C123.362 41.2494 112.872 35.1266 101.892 32.9962C90.9121 30.8657 79.5441 32.3498 69.3067 35.5773C60.1211 38.4771 51.335 43.0156 46.2838 50.1125C43.5838 53.9091 42.0707 58.261 40.5801 62.5583C38.2626 69.2591 35.9451 75.96 33.6276 82.6609C32.3733 86.2844 31.1133 89.949 31.0064 93.7728C30.6633 106.323 44.1407 120.385 56.9599 125.606C60.0311 126.858 63.0011 128.274 65.9429 129.749C71.5904 132.585 77.2547 135.544 83.504 137.192C88.8252 138.594 94.3377 139.167 99.7882 138.958C112.208 138.485 120.404 135.995 127.829 129.166L127.823 129.162Z" fill="#FDD994" fill-opacity="0.8"/>
<g id="Group">
<path id="Vector_3" d="M106.996 93.0956V83.8035C106.995 82.365 106.539 80.9636 105.692 79.8009C104.845 78.6382 103.651 77.7742 102.282 77.333C102.236 77.3279 102.191 77.3279 102.146 77.333L90.5419 75.18L89.556 63.8482C89.556 62.646 89.0784 61.4931 88.2284 60.643C87.3783 59.793 86.2254 59.3154 85.0233 59.3154C83.8211 59.3154 82.6682 59.793 81.8182 60.643C80.9681 61.4931 80.4905 62.646 80.4905 63.8482V77.5143L77.0117 81.4578C75.7338 82.9068 75.0286 84.7724 75.0286 86.7044V92.5063C75.0289 94.1698 75.5522 95.7912 76.5244 97.141L80.3659 102.49H79.9806C79.6801 102.49 79.3918 102.609 79.1793 102.822C78.9668 103.034 78.8474 103.322 78.8474 103.623V111.929C78.8474 112.23 78.9668 112.518 79.1793 112.73C79.3918 112.943 79.6801 113.062 79.9806 113.062H105.862C106.163 113.062 106.451 112.943 106.664 112.73C106.876 112.518 106.996 112.23 106.996 111.929V103.623C106.996 103.322 106.876 103.034 106.664 102.822C106.451 102.609 106.163 102.49 105.862 102.49H105.636L106.225 99.9287C106.737 97.6869 106.995 95.3949 106.996 93.0956ZM104.729 110.796H81.1365V104.756H104.729V110.796ZM83.1989 102.49L78.4055 95.8152C77.7125 94.8511 77.3399 93.6936 77.3403 92.5063V86.7044C77.3395 85.3233 77.8432 83.9894 78.7568 82.9536L80.5359 80.9365V87.9849C80.5359 88.2855 80.6553 88.5737 80.8678 88.7862C81.0803 88.9987 81.3685 89.1181 81.6691 89.1181C81.9696 89.1181 82.2578 88.9987 82.4703 88.7862C82.6828 88.5737 82.8022 88.2855 82.8022 87.9849V63.8142C82.8022 63.2131 83.041 62.6366 83.466 62.2116C83.8911 61.7866 84.4675 61.5478 85.0686 61.5478C85.3669 61.5461 85.6625 61.6032 85.9387 61.716C86.2148 61.8288 86.466 61.995 86.6777 62.205C86.901 62.4265 87.0757 62.692 87.1908 62.9846C87.3059 63.2772 87.3589 63.5906 87.3463 63.9048L88.4115 76.1998C88.4115 76.1998 88.4115 76.1998 88.4115 76.2792C88.422 76.3542 88.445 76.427 88.4795 76.4945C88.499 76.5613 88.5256 76.6259 88.5588 76.6871C88.5978 76.7486 88.6434 76.8056 88.6948 76.8571C88.7392 76.9146 88.7928 76.9644 88.8534 77.0044L89.0234 77.1064L89.25 77.197H89.318L101.692 79.4634C102.59 79.777 103.366 80.3648 103.911 81.1437C104.456 81.9225 104.742 82.853 104.729 83.8035V93.0956C104.731 95.2235 104.491 97.3447 104.015 99.4187L103.313 102.49H83.1989ZM75.6179 70.5113C75.4212 70.5112 75.2279 70.46 75.0571 70.3627C74.8862 70.2653 74.7436 70.1252 74.6433 69.956C73.5765 68.1662 72.9994 66.1271 72.9699 64.0437C72.9405 61.9602 73.4597 59.9057 74.4755 58.0864C75.4912 56.2671 76.9678 54.7471 78.7568 53.679C80.5459 52.6109 82.5845 52.0323 84.6679 52.0013C86.7514 51.9703 88.8063 52.4881 90.6263 53.5025C92.4463 54.517 93.9674 55.9924 95.0368 57.7807C96.1062 59.569 96.6863 61.6072 96.7188 63.6906C96.7513 65.774 96.235 67.8293 95.2219 69.65C95.1475 69.7803 95.0482 69.8945 94.9296 69.9864C94.811 70.0782 94.6755 70.1458 94.5309 70.1852C94.3862 70.2247 94.2351 70.2353 94.0864 70.2163C93.9376 70.1974 93.794 70.1494 93.6638 70.075C93.5336 70.0006 93.4193 69.9013 93.3275 69.7827C93.2356 69.6641 93.1681 69.5286 93.1286 69.3839C93.0892 69.2392 93.0786 69.0882 93.0975 68.9394C93.1164 68.7907 93.1644 68.6471 93.2388 68.5169C94.0584 67.043 94.4756 65.3794 94.4486 63.6932C94.4216 62.007 93.9513 60.3576 93.085 58.9107C92.2187 57.4638 90.9869 56.2704 89.5133 55.4503C88.0397 54.6302 86.3762 54.2124 84.69 54.2388C83.0038 54.2652 81.3543 54.7349 79.9071 55.6007C78.4599 56.4665 77.266 57.6979 76.4454 59.1712C75.6248 60.6445 75.2064 62.3078 75.2322 63.994C75.258 65.6803 75.7271 67.33 76.5924 68.7775C76.7456 69.036 76.7899 69.3447 76.7156 69.6358C76.6412 69.927 76.4542 70.1766 76.1958 70.33C76.0218 70.4388 75.8228 70.5012 75.6179 70.5113Z" fill="#7446B3"/>
</g>
</g>
</svg>
