<svg width="165" height="166" viewBox="0 0 165 166" fill="none" xmlns="http://www.w3.org/2000/svg">
<g id="Group 1171280287">
<g id="Group 1171280368">
<path id="Vector" d="M147.85 99.4928C148.288 97.5888 148.627 95.5769 148.867 93.4257C150.232 81.2341 145.023 69.5594 137.551 59.9851C130.079 50.4108 120.41 42.5129 111.502 34.0333C107.712 30.4294 104.002 26.669 99.2986 24.0597C89.4538 18.6029 76.1578 18.9752 64.8863 23.429C53.6148 27.8829 44.2261 35.9996 36.9404 45.1057C30.4056 53.2799 25.2461 62.7754 25.0544 72.4979C24.9538 77.6978 26.2727 82.725 27.5781 87.6871C29.6199 95.4206 31.6618 103.154 33.7036 110.887C34.8067 115.07 35.93 119.295 38.1972 122.991C45.6456 135.117 66.5579 140.525 81.4079 137.923C84.9662 137.3 88.5341 136.893 92.113 136.558C98.9864 135.921 105.951 135.39 112.635 133.269C118.326 131.462 123.679 128.754 128.491 125.34C139.458 117.562 145.348 110.362 147.858 99.4938L147.85 99.4928Z" fill="#FDD994" fill-opacity="0.4"/>
<path id="Vector_2" d="M66.8012 134.786C68.4349 135.277 70.1682 135.688 72.0286 136.022C82.572 137.916 93.0448 134.052 101.818 128.095C110.592 122.138 118.032 114.17 125.935 106.898C129.294 103.804 132.784 100.789 135.33 96.842C140.653 88.5798 141.097 76.9737 137.867 66.8958C134.638 56.8178 128.108 48.1687 120.595 41.2947C113.851 35.1288 105.876 30.0848 97.416 29.3561C92.8913 28.968 88.4349 29.8266 84.0362 30.6774C77.1802 32.0096 70.3243 33.3417 63.4684 34.6739C59.7604 35.3934 56.0145 36.128 52.6633 37.8899C41.6678 43.6788 35.7476 61.5868 37.157 74.6756C37.4939 77.8119 37.6426 80.944 37.7271 84.0816C37.8854 90.107 37.9454 96.2058 39.4074 102.152C40.6533 107.215 42.7029 112.035 45.4 116.425C51.5424 126.43 57.476 131.978 66.7999 134.792L66.8012 134.786Z" fill="#FDD994" fill-opacity="0.8"/>
<path id="Vector_3" d="M105.579 69.4754L85.8886 60.6154C85.6286 60.4954 85.3386 60.4954 85.0786 60.6154L65.3886 69.4754C65.0386 69.6354 64.8086 69.9854 64.8086 70.3754V93.8854C64.8086 94.2754 65.0286 94.6254 65.3886 94.7854L85.0786 103.765C85.0886 103.765 85.0886 103.765 85.0986 103.765C85.2086 103.815 85.3286 103.835 85.4486 103.845C85.4586 103.845 85.4786 103.855 85.4886 103.855C85.6286 103.855 85.7686 103.825 85.8886 103.765C85.8886 103.765 85.8886 103.765 85.8986 103.765L105.589 94.7854C105.939 94.6254 106.169 94.2754 106.169 93.8854V70.3754C106.159 69.9854 105.939 69.6354 105.579 69.4754ZM86.4686 63.0354L102.879 70.4154L86.4686 78.6154V63.0354ZM84.4986 63.0354V78.6254L68.0886 70.4254L84.4986 63.0354ZM66.7786 71.9654L84.5086 80.8254V101.335L66.7786 93.2454V71.9654ZM86.4686 101.335V80.8254L104.189 71.9654V93.2454L86.4686 101.335Z" fill="#7446B3"/>
<path id="Vector_4" d="M116.01 97.3843C115.47 97.3843 115.03 97.8243 115.03 98.3643V101.314L108.24 95.4943C107.83 95.1443 107.21 95.1843 106.85 95.6043C106.5 96.0143 106.54 96.6343 106.96 96.9943L113.53 102.634H110.78C110.24 102.634 109.8 103.074 109.8 103.614C109.8 104.154 110.24 104.594 110.78 104.594H116.02C116.56 104.594 117 104.154 117 103.614V98.3743C117 97.8243 116.56 97.3843 116.01 97.3843Z" fill="#7446B3"/>
<path id="Vector_5" d="M62.75 95.4952L55.96 101.315V98.3652C55.96 97.8252 55.52 97.3852 54.98 97.3852C54.44 97.3852 54 97.8252 54 98.3652V103.605C54 104.145 54.44 104.585 54.98 104.585H60.22C60.76 104.585 61.2 104.145 61.2 103.605C61.2 103.065 60.76 102.625 60.22 102.625H57.45L64.03 96.9852C64.44 96.6352 64.49 96.0052 64.14 95.5952C63.78 95.1852 63.16 95.1452 62.75 95.4952Z" fill="#7446B3"/>
<path id="Vector_6" d="M81.978 51.885L84.508 49.355V57.435C84.508 57.975 84.948 58.415 85.488 58.415C86.028 58.415 86.468 57.975 86.468 57.435V49.355L88.998 51.885C89.188 52.075 89.438 52.175 89.698 52.175C89.948 52.175 90.198 52.075 90.398 51.885C90.778 51.505 90.778 50.875 90.398 50.495L86.188 46.285C85.808 45.905 85.178 45.905 84.798 46.285L80.578 50.495C80.198 50.875 80.198 51.505 80.578 51.885C80.958 52.265 81.588 52.265 81.978 51.885Z" fill="#7446B3"/>
</g>
</g>
</svg>
