<svg width="164" height="163" viewBox="0 0 164 163" fill="none" xmlns="http://www.w3.org/2000/svg">
<g id="Group 1171280367">
<path id="Vector" d="M62.0233 145.765C63.9013 146.304 65.8922 146.749 68.0276 147.104C80.1291 149.117 92.0648 144.537 102.024 137.586C111.982 130.635 120.384 121.4 129.327 112.957C133.127 109.364 137.08 105.86 139.936 101.302C145.91 91.7621 146.247 78.4651 142.4 66.9723C138.553 55.4795 130.948 45.6716 122.243 37.911C114.429 30.95 105.221 25.2918 95.5229 24.5823C90.3358 24.2049 85.2454 25.2539 80.2208 26.2931C72.3896 27.92 64.5584 29.5468 56.7271 31.1737C52.4917 32.0523 48.2129 32.9489 44.4015 35.016C31.8958 41.8076 25.381 62.4021 27.1885 77.3697C27.6206 80.9561 27.8371 84.5406 27.9803 88.1323C28.2506 95.0298 28.4094 102.013 30.1715 108.801C31.673 114.58 34.0913 120.069 37.2447 125.056C44.4265 136.422 51.3032 142.688 62.0218 145.773L62.0233 145.765Z" fill="#FDD994" fill-opacity="0.4"/>
<path id="Vector_2" d="M118.972 112.39C120.138 111.308 121.303 110.245 122.49 109.231C137.901 95.9892 146.298 71.3137 126.018 54.3596C114.196 44.4773 100.055 34.2182 84.15 33.0997C74.2023 32.3981 65.2658 35.4931 57.5989 39.3979C50.6026 42.9619 44.2053 47.3237 40.0283 53.0206C29.1188 67.906 35.1534 88.4683 41.4133 107.07C43.7711 114.082 46.4146 121.503 53.0318 127.083C63.5181 135.931 80.7974 136.889 92.5643 132.299C103.589 128.001 111.185 119.646 118.972 112.39Z" fill="#FDD994" fill-opacity="0.8"/>
<g id="Group">
<path id="Vector_3" d="M103 112V93V81V71C103 58.85 93.15 49 81 49C68.85 49 59 58.85 59 71V84H64V97H80V111H72" stroke="#7446B3" stroke-width="2" stroke-miterlimit="10"/>
<path id="Vector_4" d="M78 97H84" stroke="#7446B3" stroke-width="2" stroke-miterlimit="10"/>
<path id="Vector_5" d="M54 61H75" stroke="#7446B3" stroke-width="2" stroke-miterlimit="10"/>
<path id="Vector_6" d="M72 64L75 61L72 58" stroke="#7446B3" stroke-width="2" stroke-miterlimit="10"/>
<path id="Vector_7" d="M57 69H77" stroke="#7446B3" stroke-width="2" stroke-miterlimit="10"/>
<path id="Vector_8" d="M74 72L77 69L74 66" stroke="#7446B3" stroke-width="2" stroke-miterlimit="10"/>
<path id="Vector_9" d="M113 73H90" stroke="#7446B3" stroke-width="2" stroke-miterlimit="10"/>
<path id="Vector_10" d="M93 70L90 73L93 76" stroke="#7446B3" stroke-width="2" stroke-miterlimit="10"/>
<path id="Vector_11" d="M105 65H88" stroke="#7446B3" stroke-width="2" stroke-miterlimit="10"/>
<path id="Vector_12" d="M91 62L88 65L91 68" stroke="#7446B3" stroke-width="2" stroke-miterlimit="10"/>
<path id="Vector_13" d="M52 61H49" stroke="#7446B3" stroke-width="2" stroke-miterlimit="10"/>
<path id="Vector_14" d="M55 69H53" stroke="#7446B3" stroke-width="2" stroke-miterlimit="10"/>
<path id="Vector_15" d="M51 69H49" stroke="#7446B3" stroke-width="2" stroke-miterlimit="10"/>
<path id="Vector_16" d="M107 65H109" stroke="#7446B3" stroke-width="2" stroke-miterlimit="10"/>
<path id="Vector_17" d="M111 65H113" stroke="#7446B3" stroke-width="2" stroke-miterlimit="10"/>
<path id="Vector_18" d="M102 56H104" stroke="#7446B3" stroke-width="2" stroke-miterlimit="10"/>
<path id="Vector_19" d="M106 56H108" stroke="#7446B3" stroke-width="2" stroke-miterlimit="10"/>
<path id="Vector_20" d="M110 56H112" stroke="#7446B3" stroke-width="2" stroke-miterlimit="10"/>
<path id="Vector_21" d="M53 52H55" stroke="#7446B3" stroke-width="2" stroke-miterlimit="10"/>
<path id="Vector_22" d="M57 52H59" stroke="#7446B3" stroke-width="2" stroke-miterlimit="10"/>
<path id="Vector_23" d="M61 52H63" stroke="#7446B3" stroke-width="2" stroke-miterlimit="10"/>
<path id="Vector_24" d="M80 57H82" stroke="#7446B3" stroke-width="2" stroke-miterlimit="10"/>
<path id="Vector_25" d="M84 57H86" stroke="#7446B3" stroke-width="2" stroke-miterlimit="10"/>
<path id="Vector_26" d="M65 76H67" stroke="#7446B3" stroke-width="2" stroke-miterlimit="10"/>
<path id="Vector_27" d="M69 76H71" stroke="#7446B3" stroke-width="2" stroke-miterlimit="10"/>
<path id="Vector_28" d="M88 57H90" stroke="#7446B3" stroke-width="2" stroke-miterlimit="10"/>
</g>
</g>
</svg>
